<svg width="32" height="32" viewBox="0 0 32 32" fill="none" xmlns="http://www.w3.org/2000/svg">
<circle cx="16" cy="16" r="15" stroke="#5897FF" stroke-width="2"/>
<path d="M20.0905 12.4685C19.7811 11.9138 19.3333 11.4937 18.7471 11.2084C18.1772 10.9072 17.5014 10.7566 16.7198 10.7566C15.3683 10.7566 14.2854 11.1925 13.4713 12.0643C12.6571 12.9203 12.25 14.0695 12.25 15.5119C12.25 17.0494 12.6734 18.2541 13.5201 19.1259C14.3831 19.9818 15.5637 20.4098 17.0618 20.4098C18.0876 20.4098 18.9507 20.1562 19.6509 19.649C20.3673 19.1417 20.8884 18.4126 21.2141 17.4615H15.9138V14.4657H25V18.2462C24.6906 19.2606 24.1614 20.2037 23.4124 21.0755C22.6796 21.9473 21.7433 22.6527 20.6034 23.1916C19.4636 23.7305 18.1772 24 16.7443 24C15.0508 24 13.5364 23.6434 12.2011 22.9301C10.8822 22.2009 9.84818 21.1944 9.09914 19.9105C8.36638 18.6266 8 17.1604 8 15.5119C8 13.8634 8.36638 12.3972 9.09914 11.1133C9.84818 9.81352 10.8822 8.80699 12.2011 8.09371C13.5201 7.36457 15.0263 7 16.7198 7C18.7716 7 20.4976 7.48345 21.898 8.45035C23.3147 9.41725 24.251 10.7566 24.7069 12.4685H20.0905Z" fill="#5897FF"/>
</svg>
